<svg xmlns="http://www.w3.org/2000/svg" viewBox="0 0 1780 940" width="1780" height="940" style="background:#070B14; font-family:-apple-system, BlinkMacSystemFont, 'Segoe UI', Roboto, Helvetica, Arial, sans-serif;">
  <defs>
    <!-- Gradients -->
    <linearGradient id="bgGrad" x1="0%" y1="0%" x2="0%" y2="100%">
      <stop offset="0%" stop-color="#0E1626"/>
      <stop offset="100%" stop-color="#070B14"/>
    </linearGradient>
    <linearGradient id="cardGrad" x1="0%" y1="0%" x2="0%" y2="100%">
      <stop offset="0%" stop-color="#141E33"/>
      <stop offset="100%" stop-color="#0D1527"/>
    </linearGradient>
    <linearGradient id="activeCardGrad" x1="0%" y1="0%" x2="0%" y2="100%">
      <stop offset="0%" stop-color="#0E2A47"/>
      <stop offset="100%" stop-color="#081B30"/>
    </linearGradient>
    <linearGradient id="chartFillGrad" x1="0%" y1="0%" x2="0%" y2="100%">
      <stop offset="0%" stop-color="#059669" stop-opacity="0.35"/>
      <stop offset="100%" stop-color="#059669" stop-opacity="0.0"/>
    </linearGradient>
    <linearGradient id="btnGrad" x1="0%" y1="0%" x2="100%" y2="100%">
      <stop offset="0%" stop-color="#0284C7"/>
      <stop offset="100%" stop-color="#0369A1"/>
    </linearGradient>
    <linearGradient id="btnGreenGrad" x1="0%" y1="0%" x2="100%" y2="100%">
      <stop offset="0%" stop-color="#059669"/>
      <stop offset="100%" stop-color="#047857"/>
    </linearGradient>

    <!-- Filters / Shadows -->
    <filter id="cardShadow" x="-5%" y="-5%" width="110%" height="115%">
      <feDropShadow dx="0" dy="4" stdDeviation="6" flood-color="#000000" flood-opacity="0.4"/>
    </filter>
    <filter id="glowGreen" x="-20%" y="-20%" width="140%" height="140%">
      <feGaussianBlur stdDeviation="4" result="blur"/>
      <feComposite in="SourceGraphic" in2="blur" operator="over"/>
    </filter>
    <filter id="glowBlue" x="-20%" y="-20%" width="140%" height="140%">
      <feGaussianBlur stdDeviation="4" result="blur"/>
      <feComposite in="SourceGraphic" in2="blur" operator="over"/>
    </filter>
  </defs>

  <!-- Title Banner -->
  <g id="Header_Overview">
    <text x="40" y="42" fill="#F8FAFC" font-size="20" font-weight="800" letter-spacing="1">VAJRAWORLD GUARDIAN — DEFENCE SIMULATOR</text>
    <text x="40" y="64" fill="#64748B" font-size="13" font-weight="500">Full UI System Specification &amp; Vector Artboards for Figma Import (Screen Size: 390 × 844 px)</text>
  </g>

  <!-- ========================================================================= -->
  <!-- ARTBOARD 1: CONFIGURATION & SCENARIO PICKER                               -->
  <!-- ========================================================================= -->
  <g id="Artboard_1_Configuration" transform="translate(40, 80)">
    <!-- Phone Container Frame -->
    <rect width="390" height="844" rx="32" fill="url(#bgGrad)" stroke="#1E293B" stroke-width="2" filter="url(#cardShadow)"/>
    
    <!-- Status Bar -->
    <text x="32" y="34" fill="#94A3B8" font-size="12" font-weight="600">6:45</text>
    <circle cx="334" cy="30" r="3" fill="#94A3B8"/>
    <path d="M346 26 h16 a2 2 0 0 1 2 2 v6 a2 2 0 0 1 -2 2 h-16 a2 2 0 0 1 -2 -2 v-6 a2 2 0 0 1 2 -2 z" fill="none" stroke="#94A3B8" stroke-width="1.5"/>
    <rect x="348" y="28" width="10" height="6" rx="1" fill="#94A3B8"/>

    <!-- Top App Bar -->
    <g id="TopBar_1">
      <rect x="20" y="50" width="35" height="35" rx="8" fill="#141E33" stroke="#1E293B"/>
      <path d="M40 67 L34 67 M34 67 L38 63 M34 67 L38 71" stroke="#38BDF8" stroke-width="2" stroke-linecap="round" stroke-linejoin="round"/>
      
      <rect x="63" y="50" width="35" height="35" rx="8" fill="#0C2540" stroke="#0284C7"/>
      <!-- Shield Icon -->
      <path d="M80 56 L72 60 V68 C72 74 80 79 80 79 C80 79 88 74 88 68 V60 Z" fill="#0284C7" opacity="0.4"/>
      <path d="M80 57 L73 61 V68 C73 73 80 77 80 77 C80 77 87 73 87 68 V61 Z" fill="none" stroke="#38BDF8" stroke-width="1.5"/>
      
      <text x="106" y="64" fill="#F8FAFC" font-size="13" font-weight="800" letter-spacing="0.5">DEFENCE SIMULATOR</text>
      <text x="106" y="77" fill="#38BDF8" font-size="9" font-weight="600" letter-spacing="0.5">COUNTERFACTUAL REPLAY</text>

      <rect x="294" y="53" width="76" height="28" rx="6" fill="#064E3B" stroke="#059669"/>
      <circle cx="304" cy="67" r="3" fill="#10B981" filter="url(#glowGreen)"/>
      <text x="312" y="70" fill="#34D399" font-size="9" font-weight="700">LIVE SENSOR</text>
    </g>

    <!-- Read-Only Banner -->
    <rect x="20" y="98" width="350" height="32" rx="6" fill="#064E3B" fill-opacity="0.4" stroke="#059669" stroke-width="1"/>
    <text x="32" y="118" fill="#34D399" font-size="10" font-weight="700" letter-spacing="0.5">READ-ONLY LATENT WORLD MODEL</text>
    <text x="270" y="118" fill="#94A3B8" font-size="10">Zero Disruption</text>

    <!-- Section 1 Title -->
    <text x="20" y="150" fill="#94A3B8" font-size="11" font-weight="700" letter-spacing="0.5">1. SELECT CYBER ATTACK SCENARIO</text>

    <!-- Scenario Card 1 (Active) -->
    <g id="Scenario_Card_Active">
      <rect x="20" y="162" width="350" height="92" rx="10" fill="url(#activeCardGrad)" stroke="#0284C7" stroke-width="1.5"/>
      <text x="32" y="184" fill="#38BDF8" font-size="13" font-weight="700">Ransomware Mass Encryption Wave</text>
      <rect x="318" y="171" width="42" height="16" rx="4" fill="#78350F" fill-opacity="0.6"/>
      <text x="324" y="183" fill="#FBBF24" font-size="9" font-weight="700">T1486</text>
      <text x="32" y="202" fill="#94A3B8" font-size="10" width="320">Simulates unauthorized background payload initiating recursive encryption across storage volumes</text>
      <text x="32" y="222" fill="#64748B" font-size="9">Vector: Filesystem Traversal &amp; Rapid Entropy</text>
      <text x="32" y="240" fill="#34D399" font-size="10" font-weight="700">Base Risk: 88% → Optimal: 12% (-86%)</text>
    </g>

    <!-- Scenario Card 2 (Inactive) -->
    <g id="Scenario_Card_Inactive1">
      <rect x="20" y="262" width="350" height="74" rx="10" fill="url(#cardGrad)" stroke="#1E293B" stroke-width="1"/>
      <text x="32" y="284" fill="#F8FAFC" font-size="12" font-weight="600">Banking Overlay &amp; Accessibility Stealer</text>
      <rect x="318" y="271" width="42" height="16" rx="4" fill="#1E293B"/>
      <text x="324" y="283" fill="#94A3B8" font-size="9" font-weight="600">T1056</text>
      <text x="32" y="302" fill="#64748B" font-size="10">Toxic combination: ACCESSIBILITY + SYSTEM_ALERT_WINDOW</text>
      <text x="32" y="322" fill="#64748B" font-size="9">Base Risk: 82% → Optimal: 10%</text>
    </g>

    <!-- Scenario Card 3 (Inactive) -->
    <g id="Scenario_Card_Inactive2">
      <rect x="20" y="344" width="350" height="74" rx="10" fill="url(#cardGrad)" stroke="#1E293B" stroke-width="1"/>
      <text x="32" y="366" fill="#F8FAFC" font-size="12" font-weight="600">Zero-Day Remote Lateral Movement</text>
      <rect x="318" y="353" width="42" height="16" rx="4" fill="#1E293B"/>
      <text x="324" y="365" fill="#94A3B8" font-size="9" font-weight="600">T1548</text>
      <text x="32" y="384" fill="#64748B" font-size="10">Exploitation of open daemon socket to elevate privileges to root</text>
      <text x="32" y="404" fill="#64748B" font-size="9">Base Risk: 94% → Optimal: 15%</text>
    </g>

    <!-- Section 2: Containment Target -->
    <text x="20" y="440" fill="#94A3B8" font-size="11" font-weight="700" letter-spacing="0.5">2. CONTAINMENT TARGET (DEVICE LAYER)</text>
    <g id="Target_Entity_Chips">
      <!-- Active Chip -->
      <rect x="20" y="452" width="176" height="30" rx="6" fill="#0C2540" stroke="#0284C7" stroke-width="1"/>
      <text x="30" y="471" fill="#38BDF8" font-size="10" font-weight="700">Local Storage &amp; User Docs</text>

      <!-- Inactive Chip 1 -->
      <rect x="204" y="452" width="166" height="30" rx="6" fill="#141E33" stroke="#1E293B" stroke-width="1"/>
      <text x="214" y="471" fill="#94A3B8" font-size="10">Financial Apps &amp; Screen</text>
    </g>

    <!-- Section 3: Countermeasure Strategy -->
    <text x="20" y="504" fill="#94A3B8" font-size="11" font-weight="700" letter-spacing="0.5">3. DEFENSIVE COUNTERMEASURE</text>
    
    <!-- Action Item 1 (Selected) -->
    <g id="Action_1_Selected">
      <rect x="20" y="516" width="350" height="36" rx="8" fill="#0C2540" stroke="#0284C7" stroke-width="1"/>
      <text x="34" y="539" fill="#38BDF8" font-size="11" font-weight="700">STORAGE WRITE LOCKDOWN</text>
      <circle cx="348" cy="534" r="7" fill="#0284C7"/>
      <circle cx="348" cy="534" r="3" fill="#FFFFFF"/>
    </g>

    <!-- Action Item 2 -->
    <g id="Action_2">
      <rect x="20" y="558" width="350" height="36" rx="8" fill="#141E33" stroke="#1E293B" stroke-width="1"/>
      <text x="34" y="581" fill="#CBD5E1" font-size="11">OVERLAY PERMISSION STRIP</text>
      <circle cx="348" cy="576" r="7" fill="none" stroke="#64748B" stroke-width="1.5"/>
    </g>

    <!-- Action Item 3 -->
    <g id="Action_3">
      <rect x="20" y="600" width="350" height="36" rx="8" fill="#141E33" stroke="#1E293B" stroke-width="1"/>
      <text x="34" y="623" fill="#CBD5E1" font-size="11">AUTONOMOUS SOCKET CONTAINMENT</text>
      <circle cx="348" cy="618" r="7" fill="none" stroke="#64748B" stroke-width="1.5"/>
    </g>

    <!-- Run Simulation Button -->
    <g id="CTA_Simulate">
      <rect x="20" y="658" width="350" height="48" rx="10" fill="url(#btnGrad)" filter="url(#glowBlue)"/>
      <polygon points="126,678 126,690 137,684" fill="#070B14"/>
      <text x="146" y="688" fill="#070B14" font-size="12" font-weight="800" letter-spacing="1">RUN COUNTERFACTUAL REPLAY</text>
    </g>

    <!-- Bottom Navigation Bar -->
    <g id="BottomNav_1">
      <rect x="0" y="764" width="390" height="80" fill="#0A0F1D" stroke="#1E293B" stroke-width="1"/>
      <text x="36" y="810" fill="#64748B" font-size="10">Overview</text>
      <text x="104" y="810" fill="#64748B" font-size="10">Radar</text>
      <text x="160" y="810" fill="#64748B" font-size="10">Trajectory</text>
      <text x="232" y="810" fill="#64748B" font-size="10">Network</text>
      <rect x="282" y="776" width="56" height="32" rx="16" fill="#0C2540"/>
      <text x="290" y="810" fill="#38BDF8" font-size="10" font-weight="700">Simulate</text>
      <text x="342" y="810" fill="#64748B" font-size="10">Incidents</text>
    </g>
  </g>

  <!-- ========================================================================= -->
  <!-- ARTBOARD 2: ANIMATED INCIDENT REPLAY WITH TIMELINE & SCRUBBER            -->
  <!-- ========================================================================= -->
  <g id="Artboard_2_Incident_Replay" transform="translate(470, 80)">
    <!-- Phone Container Frame -->
    <rect width="390" height="844" rx="32" fill="url(#bgGrad)" stroke="#1E293B" stroke-width="2" filter="url(#cardShadow)"/>
    
    <!-- Top Bar -->
    <g id="TopBar_2">
      <rect x="20" y="50" width="35" height="35" rx="8" fill="#141E33" stroke="#1E293B"/>
      <path d="M40 67 L34 67 M34 67 L38 63 M34 67 L38 71" stroke="#38BDF8" stroke-width="2" stroke-linecap="round"/>
      <text x="66" y="65" fill="#F8FAFC" font-size="13" font-weight="800">DEFENCE SIMULATOR</text>
      <text x="66" y="78" fill="#34D399" font-size="9" font-weight="700">REPLAY IN PROGRESS (60 FPS)</text>
      <rect x="294" y="53" width="76" height="28" rx="6" fill="#064E3B" stroke="#059669"/>
      <circle cx="304" cy="67" r="3" fill="#10B981"/>
      <text x="312" y="70" fill="#34D399" font-size="9" font-weight="700">LIVE SENSOR</text>
    </g>

    <!-- Main Replay Card -->
    <g id="Replay_Experience_Card">
      <rect x="16" y="98" width="358" height="654" rx="14" fill="#0D1527" stroke="#059669" stroke-width="1.5" filter="url(#cardShadow)"/>
      
      <!-- Card Header -->
      <path d="M32 122 L27 125 V131 C27 135 32 138 32 138 C32 138 37 135 37 131 V125 Z" fill="#059669"/>
      <text x="44" y="132" fill="#34D399" font-size="11" font-weight="800" letter-spacing="0.5">INCIDENT TRAJECTORY REPLAY</text>
      <rect x="274" y="118" width="86" height="20" rx="4" fill="#064E3B" stroke="#059669"/>
      <text x="282" y="132" fill="#34D399" font-size="9" font-weight="700">INTERVENED</text>

      <!-- 1. Interactive Scrubber Control Bar -->
      <g id="Scrubber_Control_Bar" transform="translate(30, 150)">
        <rect width="330" height="52" rx="8" fill="#070B14" stroke="#1E293B"/>
        <!-- Play / Pause Icon -->
        <circle cx="22" cy="26" r="12" fill="#0C2540"/>
        <rect x="18" y="20" width="3" height="12" rx="1" fill="#38BDF8"/>
        <rect x="23" y="20" width="3" height="12" rx="1" fill="#38BDF8"/>
        
        <!-- Restart Icon -->
        <circle cx="50" cy="26" r="10" fill="#141E33"/>
        <path d="M50 20 A6 6 0 1 1 44 26" fill="none" stroke="#94A3B8" stroke-width="1.5"/>
        <polygon points="44,22 47,26 42,26" fill="#94A3B8"/>

        <!-- Time Label -->
        <text x="70" y="30" fill="#F8FAFC" font-size="11" font-weight="700">T+1.8s / 3.0s</text>
        <text x="248" y="30" fill="#64748B" font-size="10">Scrub Timeline</text>

        <!-- Slider Track & Thumb -->
        <rect x="14" y="42" width="302" height="4" rx="2" fill="#1E293B"/>
        <rect x="14" y="42" width="181" height="4" rx="2" fill="#059669"/>
        <circle cx="195" cy="44" r="6" fill="#34D399" filter="url(#glowGreen)"/>
      </g>

      <!-- 2. Progressive Risk Trajectory Chart Canvas -->
      <g id="Trajectory_Chart_Canvas" transform="translate(30, 214)">
        <rect width="330" height="130" rx="8" fill="#070B14" stroke="#1E293B"/>
        <!-- Grid lines -->
        <line x1="12" y1="32" x2="318" y2="32" stroke="#1E293B" stroke-dasharray="2 4"/>
        <line x1="12" y1="65" x2="318" y2="65" stroke="#1E293B" stroke-dasharray="2 4"/>
        <line x1="12" y1="98" x2="318" y2="98" stroke="#1E293B" stroke-dasharray="2 4"/>
        
        <!-- Y-Axis labels -->
        <text x="14" y="28" fill="#475569" font-size="8">75% RISK</text>
        <text x="14" y="61" fill="#475569" font-size="8">50% RISK</text>
        <text x="14" y="94" fill="#475569" font-size="8">25% RISK</text>

        <!-- Baseline curve (Unmitigated escalation, dashed faded red) -->
        <path d="M 12 45 C 80 40, 160 30, 318 18" fill="none" stroke="#DC2626" stroke-width="2" stroke-opacity="0.35" stroke-dasharray="4 3"/>
        <text x="240" y="24" fill="#DC2626" font-size="8" fill-opacity="0.6">BASELINE (88%)</text>

        <!-- Vertical Intervention Marker Line (t=0.35 => x=115) -->
        <line x1="115" y1="8" x2="115" y2="122" stroke="#0284C7" stroke-width="1.5" stroke-dasharray="3 3"/>
        <circle cx="115" cy="14" r="3" fill="#38BDF8"/>
        <text x="122" y="16" fill="#38BDF8" font-size="8" font-weight="700">SHIELD ENGAGED (T+1.1s)</text>

        <!-- Shaded Area Under Mitigated Curve up to current progress (x=195) -->
        <path d="M 12 45 C 50 42, 90 40, 115 44 C 145 60, 175 90, 195 102 L 195 125 L 12 125 Z" fill="url(#chartFillGrad)"/>

        <!-- Mitigated Progressive Trajectory Stroke -->
        <path d="M 12 45 C 50 42, 90 40, 115 44 C 145 60, 175 90, 195 102" fill="none" stroke="#10B981" stroke-width="3" stroke-linecap="round"/>

        <!-- Glowing Leading-Edge Indicator Dot -->
        <circle cx="195" cy="102" r="8" fill="#10B981" fill-opacity="0.3"/>
        <circle cx="195" cy="102" r="4" fill="#34D399" filter="url(#glowGreen)"/>
      </g>

      <!-- 3. Mini Topology Attack Path with Shield Ripple -->
      <g id="Mini_Topology_Diagram" transform="translate(30, 356)">
        <rect width="330" height="74" rx="8" fill="#070B14" stroke="#1E293B"/>
        <text x="14" y="20" fill="#64748B" font-size="9" font-weight="700" letter-spacing="0.5">ATTACK TOPOLOGY INTERCEPTION</text>
        
        <!-- Connecting links -->
        <line x1="48" y1="46" x2="165" y2="46" stroke="#334155" stroke-width="2"/>
        <line x1="165" y1="46" x2="282" y2="46" stroke="#059669" stroke-width="2" stroke-opacity="0.4" stroke-dasharray="2 3"/>

        <!-- Node 1: Threat Origin -->
        <circle cx="48" cy="46" r="11" fill="#1E293B"/>
        <circle cx="48" cy="46" r="5" fill="#EF4444"/>
        <text x="28" y="66" fill="#94A3B8" font-size="8" font-weight="600">ATTACKER</text>

        <!-- Node 2: Ingress Gateway / Intercept Point -->
        <circle cx="165" cy="46" r="12" fill="#0C2540" stroke="#0284C7"/>
        <circle cx="165" cy="46" r="6" fill="#10B981"/>
        <!-- Ripple Rings -->
        <circle cx="165" cy="46" r="16" fill="none" stroke="#10B981" stroke-width="1.5" stroke-opacity="0.6"/>
        <circle cx="165" cy="46" r="22" fill="none" stroke="#10B981" stroke-width="1" stroke-opacity="0.3"/>
        <text x="144" y="66" fill="#38BDF8" font-size="8" font-weight="700">GATEWAY (HALTED)</text>

        <!-- Node 3: Target Protected Asset -->
        <circle cx="282" cy="46" r="11" fill="#1E293B"/>
        <circle cx="282" cy="46" r="5" fill="#10B981"/>
        <text x="254" y="66" fill="#34D399" font-size="8" font-weight="600">STORAGE VAULT</text>
      </g>

      <!-- 4. Animated Risk Counter & Radial Gauge -->
      <g id="Risk_Metrics_Summary" transform="translate(30, 442)">
        <rect width="330" height="66" rx="8" fill="#070B14" stroke="#1E293B"/>
        
        <!-- Radial Gauge -->
        <g transform="translate(34, 33)">
          <circle cx="0" cy="0" r="22" fill="none" stroke="#1E293B" stroke-width="4"/>
          <!-- Active Arc 25% -->
          <circle cx="0" cy="0" r="22" fill="none" stroke="#10B981" stroke-width="4" stroke-dasharray="40 100" stroke-linecap="round"/>
          <text x="0" y="4" fill="#34D399" font-size="11" font-weight="800" text-anchor="middle">24%</text>
        </g>

        <!-- BEFORE -->
        <text x="82" y="26" fill="#64748B" font-size="9">BEFORE</text>
        <text x="82" y="48" fill="#EF4444" font-size="18" font-weight="800">88%</text>

        <!-- REDUCTION -->
        <text x="156" y="26" fill="#64748B" font-size="9">REDUCTION</text>
        <text x="156" y="48" fill="#10B981" font-size="18" font-weight="800">-86%</text>

        <!-- AFTER -->
        <text x="254" y="26" fill="#64748B" font-size="9">AFTER</text>
        <text x="254" y="48" fill="#10B981" font-size="18" font-weight="800">12%</text>
      </g>

      <!-- 5. Live Narrative Feed -->
      <g id="Live_Narrative_Feed" transform="translate(30, 520)">
        <text x="0" y="12" fill="#94A3B8" font-size="10" font-weight="700" letter-spacing="0.5">LIVE INCIDENT TIMELINE FEED</text>
        <text x="240" y="12" fill="#64748B" font-size="9">TIMED TO REPLAY</text>

        <!-- Event 1 -->
        <rect x="0" y="20" width="330" height="28" rx="6" fill="#070B14" stroke="#1E293B"/>
        <text x="10" y="38" fill="#38BDF8" font-size="10" font-weight="700">T+0.0s</text>
        <rect x="48" y="26" width="34" height="16" rx="3" fill="#78350F" fill-opacity="0.6"/>
        <text x="52" y="38" fill="#FBBF24" font-size="8" font-weight="700">T1486</text>
        <text x="88" y="38" fill="#E2E8F0" font-size="10">Threat vector initiated against Storage</text>

        <!-- Event 2 -->
        <rect x="0" y="52" width="330" height="28" rx="6" fill="#070B14" stroke="#1E293B"/>
        <text x="10" y="70" fill="#38BDF8" font-size="10" font-weight="700">T+0.2s</text>
        <rect x="48" y="58" width="34" height="16" rx="3" fill="#78350F" fill-opacity="0.6"/>
        <text x="52" y="70" fill="#FBBF24" font-size="8" font-weight="700">T1046</text>
        <text x="88" y="70" fill="#E2E8F0" font-size="10">Rapid entropy escalation detected (88%)</text>

        <!-- Event 3 -->
        <rect x="0" y="84" width="330" height="28" rx="6" fill="#064E3B" fill-opacity="0.3" stroke="#059669"/>
        <text x="10" y="102" fill="#34D399" font-size="10" font-weight="700">T+1.1s</text>
        <text x="48" y="102" fill="#34D399" font-size="10" font-weight="600">Intervention engaged: STORAGE WRITE LOCKDOWN</text>
      </g>

      <!-- Expandable Trigger for "Why this outcome?" -->
      <g id="Why_Outcome_Trigger" transform="translate(30, 642)">
        <rect width="330" height="34" rx="8" fill="#070B14" stroke="#1E293B"/>
        <circle cx="20" cy="17" r="7" fill="#0C2540"/>
        <text x="18" y="21" fill="#38BDF8" font-size="10" font-weight="700">i</text>
        <text x="36" y="21" fill="#F8FAFC" font-size="10" font-weight="700">WHY THIS OUTCOME? (SHAP ATTRIBUTION)</text>
        <polygon points="308,15 314,21 320,15" fill="#94A3B8"/>
      </g>
    </g>

    <!-- Bottom Navigation Bar -->
    <g id="BottomNav_2">
      <rect x="0" y="764" width="390" height="80" fill="#0A0F1D" stroke="#1E293B" stroke-width="1"/>
      <text x="36" y="810" fill="#64748B" font-size="10">Overview</text>
      <text x="104" y="810" fill="#64748B" font-size="10">Radar</text>
      <text x="160" y="810" fill="#64748B" font-size="10">Trajectory</text>
      <text x="232" y="810" fill="#64748B" font-size="10">Network</text>
      <rect x="282" y="776" width="56" height="32" rx="16" fill="#0C2540"/>
      <text x="290" y="810" fill="#38BDF8" font-size="10" font-weight="700">Simulate</text>
      <text x="342" y="810" fill="#64748B" font-size="10">Incidents</text>
    </g>
  </g>

  <!-- ========================================================================= -->
  <!-- ARTBOARD 3: EXPLAINABILITY & MITIGATION RULE ACTIVATION                   -->
  <!-- ========================================================================= -->
  <g id="Artboard_3_Explainability" transform="translate(900, 80)">
    <!-- Phone Container Frame -->
    <rect width="390" height="844" rx="32" fill="url(#bgGrad)" stroke="#1E293B" stroke-width="2" filter="url(#cardShadow)"/>
    
    <!-- Top Bar -->
    <g id="TopBar_3">
      <rect x="20" y="50" width="35" height="35" rx="8" fill="#141E33" stroke="#1E293B"/>
      <path d="M40 67 L34 67 M34 67 L38 63 M34 67 L38 71" stroke="#38BDF8" stroke-width="2" stroke-linecap="round"/>
      <text x="66" y="65" fill="#F8FAFC" font-size="13" font-weight="800">DEFENCE SIMULATOR</text>
      <text x="66" y="78" fill="#34D399" font-size="9" font-weight="700">EXPLAINABILITY &amp; ACTIONS</text>
      <rect x="294" y="53" width="76" height="28" rx="6" fill="#064E3B" stroke="#059669"/>
      <circle cx="304" cy="67" r="3" fill="#10B981"/>
      <text x="312" y="70" fill="#34D399" font-size="9" font-weight="700">VERIFIED</text>
    </g>

    <!-- Main Explainability Card -->
    <g id="Explainability_Card">
      <rect x="16" y="98" width="358" height="654" rx="14" fill="#0D1527" stroke="#059669" stroke-width="1" filter="url(#cardShadow)"/>
      
      <!-- Factor Breakdown Section -->
      <g transform="translate(30, 116)">
        <text x="0" y="16" fill="#F8FAFC" font-size="12" font-weight="800">WHY THIS OUTCOME? (SHAP ATTRIBUTION)</text>
        <text x="0" y="32" fill="#64748B" font-size="10">Ranked feature attribution explaining risk delta</text>

        <!-- Factor 1 (Primary Mitigator) -->
        <g id="Factor_1" transform="translate(0, 44)">
          <rect width="330" height="52" rx="8" fill="#070B14" stroke="#1E293B"/>
          <text x="12" y="22" fill="#F8FAFC" font-size="11" font-weight="700">STORAGE WRITE FREEZE</text>
          <text x="12" y="38" fill="#94A3B8" font-size="9">Recursive write permissions locked across user volumes</text>
          <rect x="246" y="14" width="72" height="24" rx="4" fill="#064E3B" stroke="#059669"/>
          <text x="254" y="30" fill="#34D399" font-size="10" font-weight="800">-42% RISK</text>
        </g>

        <!-- Factor 2 (Entropy Mitigator) -->
        <g id="Factor_2" transform="translate(0, 104)">
          <rect width="330" height="52" rx="8" fill="#070B14" stroke="#1E293B"/>
          <text x="12" y="22" fill="#F8FAFC" font-size="11" font-weight="700">ENTROPY SURGE SUPPRESSION</text>
          <text x="12" y="38" fill="#94A3B8" font-size="9">High-entropy cryptographic block generation halted</text>
          <rect x="246" y="14" width="72" height="24" rx="4" fill="#064E3B" stroke="#059669"/>
          <text x="254" y="30" fill="#34D399" font-size="10" font-weight="800">-28% RISK</text>
        </g>

        <!-- Factor 3 (Residual Exposure) -->
        <g id="Factor_3" transform="translate(0, 164)">
          <rect width="330" height="52" rx="8" fill="#070B14" stroke="#1E293B"/>
          <text x="12" y="22" fill="#F8FAFC" font-size="11" font-weight="700">RESIDUAL DAEMON PROBE</text>
          <text x="12" y="38" fill="#94A3B8" font-size="9">Background process pending complete thread termination</text>
          <rect x="246" y="14" width="72" height="24" rx="4" fill="#78350F" fill-opacity="0.6" stroke="#D97706"/>
          <text x="252" y="30" fill="#FBBF24" font-size="10" font-weight="800">+8% EXPOS</text>
        </g>
      </g>

      <!-- Technical Metadata Audit Table -->
      <g id="Metadata_Rows" transform="translate(30, 360)">
        <line x1="0" y1="0" x2="330" y2="0" stroke="#1E293B"/>

        <!-- Row 1 -->
        <text x="0" y="24" fill="#64748B" font-size="10">Mitigated State</text>
        <text x="330" y="24" fill="#34D399" font-size="11" font-weight="700" text-anchor="end">Threat Fully Contained</text>

        <!-- Row 2 -->
        <text x="0" y="52" fill="#64748B" font-size="10">Operational Disruption</text>
        <text x="330" y="52" fill="#F8FAFC" font-size="11" text-anchor="end">Minimal (Targeted Write Freeze)</text>

        <!-- Row 3 -->
        <text x="0" y="80" fill="#64748B" font-size="10">Defence Utility Score</text>
        <text x="330" y="80" fill="#38BDF8" font-size="11" font-weight="700" text-anchor="end">0.86 / 1.00</text>

        <!-- Row 4 -->
        <text x="0" y="108" fill="#64748B" font-size="10">Simulation ID</text>
        <text x="330" y="108" fill="#94A3B8" font-size="10" font-family="monospace" text-anchor="end">sim_ransom_20419</text>

        <line x1="0" y1="126" x2="330" y2="126" stroke="#1E293B"/>
      </g>

      <!-- Apply Mitigation Rule CTA -->
      <g id="CTA_Apply_Mitigation" transform="translate(30, 520)">
        <rect width="330" height="48" rx="10" fill="url(#btnGreenGrad)" filter="url(#glowGreen)"/>
        <!-- Shield Checkmark Icon -->
        <path d="M72 24 L66 28 V34 C66 38 72 41 72 41 C72 41 78 38 78 34 V28 Z" fill="#070B14"/>
        <path d="M69 31 L71 33 L75 29" stroke="#34D399" stroke-width="1.5" stroke-linecap="round" stroke-linejoin="round"/>
        <text x="86" y="30" fill="#070B14" font-size="11" font-weight="800" letter-spacing="1">APPLY MITIGATION RULE TO DEFENDER</text>
      </g>

      <!-- Success Confirmation Banner -->
      <g transform="translate(30, 584)">
        <rect width="330" height="52" rx="8" fill="#064E3B" fill-opacity="0.3" stroke="#059669"/>
        <circle cx="24" cy="26" r="9" fill="#059669"/>
        <path d="M21 26 L23 28 L27 24" stroke="#070B14" stroke-width="1.5" stroke-linecap="round"/>
        <text x="42" y="24" fill="#34D399" font-size="10" font-weight="700">Autonomous Mitigation Active</text>
        <text x="42" y="38" fill="#94A3B8" font-size="9">Rule dispatched to active VajraWorld core engine</text>
      </g>
    </g>

    <!-- Bottom Navigation Bar -->
    <g id="BottomNav_3">
      <rect x="0" y="764" width="390" height="80" fill="#0A0F1D" stroke="#1E293B" stroke-width="1"/>
      <text x="36" y="810" fill="#64748B" font-size="10">Overview</text>
      <text x="104" y="810" fill="#64748B" font-size="10">Radar</text>
      <text x="160" y="810" fill="#64748B" font-size="10">Trajectory</text>
      <text x="232" y="810" fill="#64748B" font-size="10">Network</text>
      <rect x="282" y="776" width="56" height="32" rx="16" fill="#0C2540"/>
      <text x="290" y="810" fill="#38BDF8" font-size="10" font-weight="700">Simulate</text>
      <text x="342" y="810" fill="#64748B" font-size="10">Incidents</text>
    </g>
  </g>

  <!-- ========================================================================= -->
  <!-- ARTBOARD 4: DESIGN SYSTEM & COMPONENT LIBRARY                             -->
  <!-- ========================================================================= -->
  <g id="Artboard_4_Design_System" transform="translate(1330, 80)">
    <rect width="410" height="844" rx="20" fill="#0A0F1D" stroke="#1E293B" stroke-width="1"/>
    
    <!-- Title -->
    <text x="24" y="44" fill="#F8FAFC" font-size="14" font-weight="800" letter-spacing="1">DESIGN TOKENS &amp; COMPONENTS</text>
    <text x="24" y="62" fill="#64748B" font-size="10">VajraWorld Guardian Mobile Palette &amp; Assets</text>

    <!-- Color Palette -->
    <text x="24" y="96" fill="#94A3B8" font-size="11" font-weight="700">COLOR PALETTE</text>
    
    <!-- Healthy Swatch -->
    <rect x="24" y="108" width="80" height="36" rx="6" fill="#059669"/>
    <text x="28" y="126" fill="#FFFFFF" font-size="9" font-weight="700">HEALTHY</text>
    <text x="28" y="137" fill="#A7F3D0" font-size="8">#059669</text>

    <!-- Info Swatch -->
    <rect x="114" y="108" width="80" height="36" rx="6" fill="#0284C7"/>
    <text x="118" y="126" fill="#FFFFFF" font-size="9" font-weight="700">INFO</text>
    <text x="118" y="137" fill="#BAE6FD" font-size="8">#0284C7</text>

    <!-- Warning Swatch -->
    <rect x="204" y="108" width="80" height="36" rx="6" fill="#D97706"/>
    <text x="208" y="126" fill="#FFFFFF" font-size="9" font-weight="700">WARNING</text>
    <text x="208" y="137" fill="#FDE68A" font-size="8">#D97706</text>

    <!-- Critical Swatch -->
    <rect x="294" y="108" width="80" height="36" rx="6" fill="#DC2626"/>
    <text x="298" y="126" fill="#FFFFFF" font-size="9" font-weight="700">CRITICAL</text>
    <text x="298" y="137" fill="#FECACA" font-size="8">#DC2626</text>

    <!-- Background Swatches -->
    <rect x="24" y="152" width="115" height="32" rx="6" fill="#070B14" stroke="#1E293B"/>
    <text x="32" y="172" fill="#94A3B8" font-size="9">Bg0: #070B14</text>

    <rect x="149" y="152" width="115" height="32" rx="6" fill="#0D1527" stroke="#1E293B"/>
    <text x="157" y="172" fill="#94A3B8" font-size="9">Card: #0D1527</text>

    <rect x="274" y="152" width="100" height="32" rx="6" fill="#141E33" stroke="#1E293B"/>
    <text x="282" y="172" fill="#94A3B8" font-size="9">Surface: #141E33</text>

    <!-- Typography Specs -->
    <text x="24" y="216" fill="#94A3B8" font-size="11" font-weight="700">TYPOGRAPHY SCALE</text>
    
    <text x="24" y="240" fill="#F8FAFC" font-size="16" font-weight="800">Heading 1 — 16px / Bold (800)</text>
    <text x="24" y="260" fill="#CBD5E1" font-size="13" font-weight="700">Subheading — 13px / Semibold (700)</text>
    <text x="24" y="278" fill="#94A3B8" font-size="11" font-family="monospace">Technical Monospace — 11px</text>
    <text x="24" y="294" fill="#64748B" font-size="10">Metadata Caption — 10px / Regular (400)</text>

    <!-- Component Elements -->
    <text x="24" y="334" fill="#94A3B8" font-size="11" font-weight="700">UI COMPONENTS</text>

    <!-- Status Pills -->
    <g transform="translate(24, 348)">
      <rect width="84" height="22" rx="4" fill="#064E3B" stroke="#059669"/>
      <text x="10" y="15" fill="#34D399" font-size="9" font-weight="700">CONTAINED</text>

      <rect x="94" width="94" height="22" rx="4" fill="#0C2540" stroke="#0284C7"/>
      <text x="104" y="15" fill="#38BDF8" font-size="9" font-weight="700">INTERVENED</text>

      <rect x="198" width="76" height="22" rx="4" fill="#78350F" fill-opacity="0.6" stroke="#D97706"/>
      <text x="208" y="15" fill="#FBBF24" font-size="9" font-weight="700">ATTACKING</text>
    </g>

    <!-- Buttons -->
    <g transform="translate(24, 386)">
      <rect width="170" height="38" rx="8" fill="url(#btnGrad)"/>
      <text x="20" y="23" fill="#070B14" font-size="10" font-weight="800">PRIMARY CTA (INFO)</text>

      <rect x="180" width="180" height="38" rx="8" fill="url(#btnGreenGrad)"/>
      <text x="200" y="23" fill="#070B14" font-size="10" font-weight="800">DEFENDER ACTION</text>
    </g>

    <!-- How to import into Figma info card -->
    <g transform="translate(24, 450)">
      <rect width="362" height="360" rx="12" fill="#070B14" stroke="#0284C7" stroke-width="1.5"/>
      <text x="16" y="28" fill="#38BDF8" font-size="12" font-weight="800">HOW TO IMPORT INTO FIGMA</text>
      
      <text x="16" y="58" fill="#F8FAFC" font-size="11" font-weight="700">Option 1: Native Drag-and-Drop (Instant)</text>
      <text x="16" y="78" fill="#94A3B8" font-size="10" width="330">• Drag this .svg file straight onto any open Figma canvas.</text>
      <text x="16" y="96" fill="#94A3B8" font-size="10">• Every artboard, card, layer, curve &amp; text will be</text>
      <text x="16" y="112" fill="#94A3B8" font-size="10">  converted into native editable Figma frames!</text>

      <text x="16" y="146" fill="#F8FAFC" font-size="11" font-weight="700">Option 2: Figma Menu Import</text>
      <text x="16" y="166" fill="#94A3B8" font-size="10">• In Figma: File → Place Image / Import (Ctrl+Shift+K)</text>
      <text x="16" y="184" fill="#94A3B8" font-size="10">• Select vajraworld_simulator_figma.svg</text>

      <text x="16" y="218" fill="#F8FAFC" font-size="11" font-weight="700">Option 3: Figma Plugin "html.to.design"</text>
      <text x="16" y="238" fill="#94A3B8" font-size="10">• Open Figma → Plugins → html.to.design</text>
      <text x="16" y="256" fill="#94A3B8" font-size="10">• Select the companion HTML file to convert to AutoLayouts!</text>

      <rect x="16" y="286" width="330" height="54" rx="8" fill="#0C2540" stroke="#0284C7"/>
      <text x="26" y="308" fill="#38BDF8" font-size="10" font-weight="700">100% VECTOR PRECISION GUARANTEED</text>
      <text x="26" y="324" fill="#94A3B8" font-size="9">All layers labeled, grouped, and styled with exact tokens.</text>
    </g>
  </g>
</svg>